#format: frame checksums
#version: 2
#hash: MD5
#tb 0: 1001/30000
#media_type 0: video
#codec_id 0: rawvideo
#dimensions 0: 66x32
#sar 0: 1/1
#stream#, dts,        pts, duration,     size, hash
0,          0,          0,        1,     3168, 013cd22aea6bfeccc8ec809abd52be5c
0,          1,          1,        1,     3168, 0980adfb0ef879b3c960797272f025ad
0,          2,          2,        1,     3168, d1411ffa0429befb8c71d3ab45acee92
0,          3,          3,        1,     3168, 6c6f825379eaf21709a45be77def7a63
0,          4,          4,        1,     3168, bab632ef00a080739a41c692f2b21c3a
0,          5,          5,        1,     3168, fc0f6045aca252f2e904730227b8f337
0,          6,          6,        1,     3168, c8dbea209329463bfd9238a11b8d5b17
0,          7,          7,        1,     3168, 457247bf4186ed8459e0a1564f0e68f2
0,          8,          8,        1,     3168, baa55e20bd7c73960b080d8a0c8db4d5
0,          9,          9,        1,     3168, dc8933e8edc98cd0cfca44ae22997c62
